# xmcd
#
# Track frame offsets: 
#        150
#        16737
#        35002
#        49649
#        67362
#        97334
#        112972
#        133925
#        152715
#        172388
#
# Disc length: 2438 seconds
#
# Revision: 2
# Processed by: cddbd v1.5.2PL0 Copyright (c) Steve Scherf et al.
# Submitted via: ExactAudioCopyFreeDBPlugin 1.0
#
DISCID=9309840a
DTITLE=Magic Red - 87 Humboldt Street
DYEAR=2003
DGENRE=Blues
TTITLE0=Open Road
TTITLE1=Valentine
TTITLE2=H2O
TTITLE3=Little Red Ball
TTITLE4=Cowboy
TTITLE5=New Years Day
TTITLE6=Precious
TTITLE7=Cordoba Cruising
TTITLE8=Nothing But Time
TTITLE9=Pink and Blue
EXTD=
EXTT0=
EXTT1=
EXTT2=
EXTT3=
EXTT4=
EXTT5=
EXTT6=
EXTT7=
EXTT8=
EXTT9=
PLAYORDER=
